<?xml version="1.0" standalone="no"?>
<!DOCTYPE svg PUBLIC "-//W3C//DTD SVG 20010904//EN"
 "http://www.w3.org/TR/2001/REC-SVG-20010904/DTD/svg10.dtd">
<svg version="1.0" xmlns="http://www.w3.org/2000/svg"
 width="894.000000pt" height="894.000000pt" viewBox="0 0 894.000000 894.000000"
 preserveAspectRatio="xMidYMid meet">

<g transform="translate(0.000000,894.000000) scale(0.100000,-0.100000)"
fill="#000000" stroke="none">
<path d="M4545 8595 c-87 -31 -494 -490 -781 -880 -121 -164 -173 -240 -319
-465 -269 -415 -536 -985 -652 -1395 -137 -485 -179 -784 -170 -1195 6 -267
21 -387 76 -633 80 -351 195 -642 372 -938 128 -214 307 -455 466 -628 23 -25
43 -51 43 -57 0 -6 -18 -43 -41 -82 -22 -38 -47 -96 -55 -127 -28 -106 -158
-355 -185 -355 -5 0 -30 22 -56 48 -27 27 -75 68 -108 92 -107 78 -170 125
-182 137 -7 6 -29 21 -50 34 -21 12 -64 42 -95 66 l-58 44 49 59 c40 47 50 69
59 118 6 33 8 69 5 81 -3 13 4 31 20 50 33 40 61 124 54 166 -3 19 -17 57 -31
87 l-25 53 33 35 c63 66 54 136 -28 211 -32 30 -46 52 -51 79 -10 61 -41 100
-96 123 -27 12 -49 26 -49 32 0 26 -72 94 -118 111 -26 10 -65 33 -86 51 -22
18 -48 34 -58 35 -10 1 -30 2 -45 4 -16 1 -57 7 -91 13 -73 14 -110 9 -167
-24 -60 -33 -172 -58 -213 -46 -38 11 -127 0 -169 -23 -48 -25 -112 -89 -128
-128 -12 -29 -14 -59 -9 -136 l7 -98 -36 -22 c-53 -31 -92 -91 -107 -164 -7
-35 -24 -91 -36 -124 -29 -77 -19 -116 43 -181 30 -30 43 -52 43 -72 0 -15 11
-49 25 -75 14 -26 25 -58 25 -72 0 -46 32 -152 52 -174 44 -47 135 -62 176
-28 9 8 19 5 36 -11 36 -34 124 -63 187 -62 45 0 60 -4 75 -20 35 -38 73 -52
129 -45 46 5 56 3 81 -19 60 -52 129 -45 198 20 26 25 51 45 57 45 5 0 53 -33
107 -73 53 -41 108 -80 122 -87 14 -7 27 -16 30 -20 6 -8 156 -120 190 -142
14 -9 64 -54 111 -101 140 -138 197 -154 286 -81 88 72 258 367 292 508 13 52
35 101 50 111 5 3 63 -43 127 -101 65 -59 136 -120 157 -137 l38 -31 -38 -39
c-21 -22 -51 -51 -67 -66 -88 -80 -192 -197 -214 -241 -15 -29 -85 -94 -197
-182 -82 -65 -123 -114 -132 -160 -5 -26 -7 -26 -102 -33 -207 -14 -539 -80
-709 -140 -223 -80 -363 -215 -402 -388 -12 -55 6 -143 38 -187 101 -136 343
-186 847 -177 463 8 1025 27 1110 36 140 16 207 51 242 126 31 67 18 245 -24
328 -68 134 -313 269 -623 341 -153 36 -145 33 -129 53 8 9 39 34 69 56 102
75 171 142 201 194 17 29 36 56 42 60 7 5 24 25 38 45 14 21 51 56 82 78 30
22 58 48 62 59 6 21 78 81 97 81 7 0 38 -19 68 -42 245 -186 824 -539 931
-567 41 -11 57 -10 127 8 88 23 266 102 337 150 l45 30 47 -21 c27 -11 59 -29
73 -38 26 -18 110 -45 170 -55 46 -7 90 -43 69 -56 -7 -5 -24 -9 -37 -9 -40 0
-294 -60 -392 -92 -224 -73 -348 -168 -418 -318 -20 -43 -26 -71 -26 -130 0
-85 12 -115 70 -172 48 -49 100 -73 215 -102 186 -47 432 -57 923 -36 133 6
374 15 536 20 323 10 377 18 439 68 23 19 44 50 60 88 22 56 23 63 12 136 -18
117 -37 170 -80 225 -67 84 -214 172 -386 232 -110 38 -387 101 -498 113
l-109 12 -44 56 c-75 96 -194 174 -290 191 -49 8 -100 29 -188 76 -67 36 -123
66 -125 68 -8 9 -99 379 -95 387 9 15 124 -84 241 -208 158 -166 257 -223 335
-191 20 9 43 26 51 39 14 22 36 127 57 278 6 41 18 88 26 104 7 16 14 37 14
47 0 23 16 32 64 37 33 3 44 -2 73 -30 32 -31 39 -33 101 -33 54 0 73 -4 100
-24 37 -26 95 -37 129 -24 42 16 142 123 153 164 8 30 17 40 38 45 90 19 137
49 192 123 31 42 40 71 41 141 1 40 7 62 24 85 35 47 58 119 51 159 -6 31 -23
75 -47 119 -8 15 -3 26 25 58 31 34 36 46 36 90 0 48 -3 54 -55 108 -30 32
-55 64 -55 72 0 26 -50 117 -73 132 -12 7 -34 17 -49 21 -16 3 -28 13 -28 22
0 26 -95 111 -132 118 -18 3 -51 22 -72 41 -22 19 -49 36 -60 37 -12 1 -34 2
-51 3 -16 2 -62 8 -102 16 l-71 13 -64 -32 c-89 -44 -178 -65 -226 -53 -96 25
-227 -34 -288 -130 -26 -41 -27 -56 -19 -171 3 -55 1 -80 -8 -87 -72 -57 -105
-95 -115 -134 -35 -131 -41 -156 -56 -193 -20 -55 -8 -98 47 -161 25 -29 44
-60 45 -78 2 -16 14 -50 26 -75 13 -25 26 -67 29 -95 15 -123 54 -179 132
-191 50 -7 52 -12 29 -75 -8 -24 -20 -69 -26 -99 -5 -30 -12 -58 -15 -62 -2
-5 -53 40 -113 98 -59 58 -123 116 -142 129 -18 12 -59 47 -90 78 -55 53 -164
127 -186 127 -6 0 -13 8 -16 18 -5 17 -118 459 -255 1006 -73 288 -81 312
-109 337 -33 30 -87 49 -138 49 -17 0 -36 6 -41 12 -6 7 -13 47 -17 88 -4 41
-18 177 -32 303 -14 125 -23 231 -20 236 3 5 20 11 37 15 17 3 46 21 64 39 55
55 55 80 9 464 -9 73 -14 139 -11 146 5 12 17 12 84 -4 96 -23 170 -24 271 -3
391 80 623 481 498 861 -63 194 -224 355 -419 420 -72 24 -98 27 -212 27 -123
1 -135 -1 -220 -32 -49 -18 -94 -34 -100 -35 -42 -9 -59 1269 -22 1563 16 119
46 226 77 270 41 58 43 134 6 191 -41 62 -388 261 -451 259 -5 -1 -28 -7 -50
-15z m212 -236 c76 -44 142 -84 147 -89 5 -5 3 -18 -6 -32 -42 -64 -77 -200
-99 -383 -27 -234 -28 -856 0 -1310 5 -82 6 -153 2 -157 -4 -4 -24 -3 -46 3
-52 15 -245 5 -308 -15 -233 -74 -401 -253 -457 -488 -43 -181 -8 -376 96
-523 55 -78 68 -92 139 -150 160 -129 390 -176 590 -119 108 30 96 51 127
-216 34 -296 33 -280 5 -280 -35 0 -473 112 -666 170 -611 184 -932 341 -1044
510 l-29 45 6 -101 c22 -369 156 -671 411 -929 170 -172 292 -259 525 -376
269 -135 562 -229 857 -275 111 -18 113 -18 122 -48 6 -17 95 -371 200 -786
104 -415 220 -872 256 -1014 36 -143 65 -271 63 -285 -3 -22 -20 -34 -114 -82
-61 -30 -138 -64 -170 -74 l-58 -18 -91 48 c-271 146 -653 392 -895 579 -804
618 -1298 1325 -1470 2106 -79 356 -92 810 -34 1165 8 50 19 115 24 145 34
209 148 593 255 854 53 131 173 383 247 521 251 471 610 982 982 1400 118 133
269 285 283 285 7 0 74 -36 150 -81z m23 -2084 c94 -25 180 -75 250 -145 62
-63 130 -169 130 -204 0 -19 -7 -20 -40 -1 -30 17 -107 19 -147 4 -34 -13 -80
-55 -99 -91 -8 -15 -14 -51 -14 -81 0 -68 39 -135 96 -163 56 -27 140 -25 182
5 18 13 36 21 39 17 10 -9 -27 -109 -63 -166 -131 -214 -374 -313 -618 -250
-101 25 -176 69 -252 144 -75 76 -119 151 -144 252 -80 310 110 617 425 687
47 11 204 6 255 -8z m683 -4 c86 -25 178 -81 242 -147 50 -52 107 -139 120
-181 6 -21 3 -23 -36 -23 -64 0 -126 -35 -161 -89 -26 -40 -29 -53 -26 -103 7
-102 67 -164 173 -177 60 -8 61 -17 9 -101 -69 -110 -178 -198 -301 -241 -106
-38 -271 -35 -367 5 l-37 15 61 73 c224 266 213 649 -24 896 -46 48 -44 53 29
73 22 5 45 12 50 14 34 12 207 3 268 -14z m-3212 -2916 c28 -21 41 -25 71 -20
34 6 38 4 44 -19 8 -35 59 -76 93 -76 35 0 122 -28 141 -46 12 -12 11 -17 -9
-35 -21 -19 -21 -23 -7 -37 8 -9 41 -29 73 -46 32 -17 59 -38 61 -47 2 -10
-14 -23 -48 -39 -27 -13 -50 -29 -50 -36 0 -7 18 -28 39 -46 43 -37 95 -140
85 -170 -3 -11 -15 -18 -32 -18 -35 0 -44 -8 -61 -50 -16 -43 -15 -83 4 -120
32 -61 8 -90 -57 -71 -30 9 -47 10 -62 2 -12 -6 -33 -15 -47 -20 -29 -10 -39
-41 -39 -116 0 -45 -19 -71 -44 -62 -7 3 -24 25 -37 49 -33 59 -62 62 -106 12
l-34 -37 -28 27 c-28 27 -54 27 -65 0 -8 -22 -70 -18 -91 6 -10 11 -27 20 -37
20 -29 0 -73 26 -92 54 -10 16 -26 26 -39 26 -29 0 -132 95 -147 135 -6 16 -9
40 -5 52 4 18 -5 34 -37 69 l-42 45 24 44 24 44 -27 25 c-15 14 -27 27 -27 30
0 22 29 57 61 75 21 12 46 29 54 38 14 14 14 18 0 39 -21 32 -19 39 16 90 17
25 40 72 51 105 11 32 25 59 32 59 13 0 50 -24 80 -52 31 -28 45 -22 52 23 10
62 37 82 101 75 46 -5 55 -3 80 19 35 31 41 31 84 0z m4446 -1 c22 -21 33 -24
64 -19 35 6 38 4 59 -34 24 -41 49 -56 112 -64 20 -3 58 -15 84 -26 l47 -21
-23 -25 c-22 -24 -23 -27 -7 -42 9 -9 42 -30 74 -47 75 -40 77 -56 13 -84 -57
-25 -63 -43 -24 -75 45 -38 57 -54 81 -113 26 -65 21 -78 -31 -88 -28 -5 -35
-13 -46 -49 -16 -49 -15 -67 7 -125 14 -40 14 -45 0 -59 -13 -13 -23 -14 -60
-4 -39 9 -51 8 -90 -9 -48 -22 -57 -37 -57 -108 0 -90 -36 -107 -78 -37 -38
64 -63 68 -113 19 l-40 -39 -20 28 c-25 32 -33 33 -59 7 -11 -11 -33 -20 -48
-20 -16 0 -38 9 -50 20 -12 11 -32 20 -45 20 -15 0 -41 16 -66 40 -22 22 -51
40 -62 40 -13 0 -47 25 -85 64 -62 61 -64 65 -64 114 0 45 -4 53 -35 81 -40
35 -43 55 -15 91 21 27 26 50 10 50 -5 0 -17 11 -26 25 -15 23 -15 29 -3 51 7
14 29 34 49 44 19 10 43 27 53 38 16 17 16 21 2 32 -23 19 -18 48 19 104 18
28 40 73 48 101 8 29 20 51 29 53 9 2 35 -13 58 -33 24 -19 49 -35 56 -35 8 0
16 17 20 41 11 64 36 82 100 74 47 -5 56 -3 81 19 37 32 46 32 81 0z m-3003
-2328 c323 -76 542 -184 579 -288 26 -70 31 -152 12 -168 -18 -15 -99 -20
-829 -46 -489 -18 -689 -15 -842 11 -113 20 -172 39 -205 67 -40 35 -42 56
-10 124 50 106 160 177 368 238 334 97 678 120 927 62z m3026 5 c299 -64 543
-180 595 -282 9 -16 18 -62 22 -103 l6 -74 -39 -11 c-21 -6 -196 -15 -389 -21
-192 -6 -438 -15 -545 -20 -563 -28 -882 10 -939 111 -13 24 -12 32 9 84 13
33 41 75 62 96 186 180 847 300 1218 220z"/>
</g>
</svg>
